<svg xmlns="http://www.w3.org/2000/svg" width="80" height="80" viewBox="0 0 80 80">
  <rect width="80" height="80" fill="#000000"/>
  
  <g transform="translate(16, 16)">
    <path fill="white" fill-rule="evenodd" d="M13.3626222,19.2103398 C17.3062496,19.2103398 20.4655477,22.1817996 20.4655477,26.0311343 C20.4655477,29.880469 17.7608608,32.8509351 13.817733,32.8509351 C12.9519734,32.8509351 12.3215125,32.485775 11.8219398,32.025226 L11.8219398,32.025226 L11.8219398,40.8 L7.05351777,40.8 L7.04402589,25.6783945 C7.04402589,22.3258764 10.0219791,19.2103398 13.3626222,19.2103398 Z M41.6871988,19.2102405 C44.2035468,19.2102405 46.4351383,20.5282948 47.5501847,22.5175483 L44.1520908,24.4809673 C43.7104684,23.5767612 42.776767,23.0342375 41.6352432,23.0342375 C39.9496847,23.0342375 38.7042498,24.2479603 38.7042498,26.0310349 C38.7042498,27.8136127 39.9496847,29.0273356 41.6352432,29.0273356 C42.776767,29.0273356 43.7369458,28.4848119 44.1520908,27.5806058 L47.5501847,29.5186871 C46.4351383,31.5337751 44.2295245,32.8513326 41.6871988,32.8513326 C37.744071,32.8513326 34.812578,29.8803696 34.812578,26.0310349 C34.812578,22.1817003 37.744071,19.2102405 41.6871988,19.2102405 Z M4.45523984,19.5725191 L4.45523984,32.4897495 L0.564067605,32.4897495 L0.564067605,19.5725191 L4.45523984,19.5725191 Z M24.8505476,19.5724197 L27.5487401,27.761447 L30.246433,19.5724197 L34.5532498,19.5724197 L29.7533547,32.4896501 L25.3431263,32.4896501 L20.5442304,19.5724197 L24.8505476,19.5724197 Z M13.4280662,23.0343368 C11.8793906,23.0343368 10.6464451,24.0349254 10.6464451,26.153848 C10.6464451,28.0655981 11.9348432,29.0274349 13.4150773,29.0274349 C15.1011354,29.0274349 16.3530647,27.8137121 16.3530647,26.0311343 C16.3530647,24.2480597 15.1141243,23.0343368 13.4280662,23.0343368 Z M2.50935398,7.38461538 C3.87568548,7.38461538 5.01920753,8.52282211 5.01920753,9.88459629 C5.01920753,11.2453768 3.87568548,12.3835836 2.50935398,12.3835836 C1.1425229,12.3835836 1.687539e-14,11.2453768 1.687539e-14,9.88459629 C1.687539e-14,8.52282211 1.1425229,7.38461538 2.50935398,7.38461538 Z M48,8.14524153 L48,11.6229574 L9.03332463,11.6229574 L9.03332463,8.14524153 L48,8.14524153 Z"/>
  </g>
</svg>